<svg width="60" height="60" viewBox="0 0 60 60" fill="none" xmlns="http://www.w3.org/2000/svg">
<circle cx="30" cy="30" r="30" fill="#FFE17D"/>
<path d="M34.3548 55.6452C17.7863 55.6452 4.3548 42.2138 4.3548 25.6452C4.3548 18.4702 6.8768 11.8861 11.0786 6.72375C4.31988 12.2245 0 20.6065 0 30C0 46.5686 13.4314 60 30 60C39.3936 60 47.7756 55.68 53.2765 48.9213C48.114 53.1231 41.53 55.6452 34.3548 55.6452Z" fill="#FFD164"/>
<path d="M30 35.7779C24.22 35.7779 18.7025 35.1068 13.6409 33.8937C12.9852 33.7365 12.4201 34.4215 12.6224 35.1354C14.9568 43.3765 21.8471 49.3549 30.0001 49.3549C38.1531 49.3549 45.0434 43.3765 47.3778 35.1354C47.5801 34.4215 47.015 33.7365 46.3594 33.8937C41.2975 35.1068 35.78 35.7779 30 35.7779Z" fill="#9C6846"/>
<path d="M46.3593 33.8937C41.2975 35.1068 35.7802 35.7779 30 35.7779C24.2198 35.7779 18.7025 35.1069 13.6409 33.8937C12.9852 33.7365 12.4201 34.4215 12.6224 35.1354C13.2334 37.2926 14.1632 39.2889 15.3395 41.0694C20.1489 41.983 25.0417 42.4856 30.0021 42.4856C34.9609 42.4856 39.8518 41.9834 44.6598 41.0705C45.8365 39.2897 46.7666 37.2932 47.3777 35.1355C47.5799 34.4214 47.0149 33.7365 46.3593 33.8937Z" fill="#7D5046"/>
<path d="M19.8386 27.1456V27.1456C18.5025 27.1456 17.4193 26.0624 17.4193 24.7262V20.8064C17.4193 19.4702 18.5025 18.3871 19.8386 18.3871V18.3871C21.1748 18.3871 22.258 19.4702 22.258 20.8064V24.7262C22.258 26.0624 21.1748 27.1456 19.8386 27.1456Z" fill="#7D5046"/>
<path d="M19.8387 18.3871C19.673 18.3871 19.5113 18.4041 19.3549 18.4358V23.7584C19.3549 24.5601 20.0048 25.21 20.8065 25.21C21.6081 25.21 22.2581 24.5601 22.2581 23.7584V20.8063C22.2581 19.4702 21.175 18.3871 19.8387 18.3871Z" fill="#9C6846"/>
<path d="M40.1613 27.1456V27.1456C38.8251 27.1456 37.7419 26.0624 37.7419 24.7262V20.8064C37.7419 19.4702 38.8251 18.3871 40.1613 18.3871V18.3871C41.4975 18.3871 42.5806 19.4702 42.5806 20.8064V24.7262C42.5806 26.0624 41.4975 27.1456 40.1613 27.1456Z" fill="#7D5046"/>
<path d="M40.1614 18.3871C39.9957 18.3871 39.8339 18.4041 39.6775 18.4358V23.7584C39.6775 24.5601 40.3274 25.21 41.1291 25.21C41.9308 25.21 42.5807 24.5601 42.5807 23.7584V20.8063C42.5807 19.4702 41.4975 18.3871 40.1614 18.3871Z" fill="#9C6846"/>
<path d="M43.0134 37.1986C43.5366 36.3022 43.9743 35.3418 44.3413 34.3419C39.8432 35.2702 35.0211 35.7778 30 35.7778C24.9758 35.7778 20.1511 35.2697 15.6506 34.3403C16.0195 35.3449 16.4644 36.3071 16.991 37.2073C17.5998 38.2479 18.6305 38.9135 19.7517 39.0499C23.109 39.4583 26.5307 39.6773 30 39.6773C33.4686 39.6773 36.8895 39.4584 40.2461 39.0502C41.3711 38.9134 42.4037 38.2434 43.0134 37.1986Z" fill="white"/>
</svg>
