<svg width="60" height="60" viewBox="0 0 60 60" fill="none" xmlns="http://www.w3.org/2000/svg">
<circle cx="30" cy="30" r="30" fill="#FFE17D"/>
<path d="M19.8386 30V30C18.5025 30 17.4193 28.9168 17.4193 27.5806V25.6452C17.4193 24.309 18.5025 23.2258 19.8386 23.2258V23.2258C21.1748 23.2258 22.258 24.309 22.258 25.6452V27.5806C22.258 28.9168 21.1748 30 19.8386 30Z" fill="#7D5046"/>
<path d="M19.8387 23.2258C19.673 23.2258 19.5113 23.2428 19.3549 23.2746V26.6129C19.3549 27.4146 20.0048 28.0645 20.8065 28.0645C21.6081 28.0645 22.2581 27.4146 22.2581 26.6129V25.6452C22.2581 24.3089 21.175 23.2258 19.8387 23.2258Z" fill="#9C6846"/>
<path d="M40.1613 30V30C38.8251 30 37.7419 28.9168 37.7419 27.5806V25.6452C37.7419 24.309 38.8251 23.2258 40.1613 23.2258V23.2258C41.4975 23.2258 42.5806 24.309 42.5806 25.6452V27.5806C42.5806 28.9168 41.4975 30 40.1613 30Z" fill="#7D5046"/>
<path d="M40.1614 23.2258C39.9957 23.2258 39.8339 23.2428 39.6775 23.2746V26.6129C39.6775 27.4146 40.3274 28.0645 41.1291 28.0645C41.9308 28.0645 42.5807 27.4146 42.5807 26.6129V25.6452C42.5807 24.3089 41.4975 23.2258 40.1614 23.2258Z" fill="#9C6846"/>
<path d="M20.3188 44.758C20.0259 44.758 19.732 44.6522 19.4995 44.4385C19.008 43.9858 18.9759 43.2208 19.4286 42.7289C21.8839 40.0605 25.8351 38.4676 29.9962 38.4676C34.1591 38.4676 38.1095 40.061 40.5638 42.7293C41.0165 43.2208 40.9844 43.9863 40.4929 44.4385C40.0025 44.8912 39.2359 44.8605 38.7832 44.3672C36.7788 42.1878 33.4938 40.8869 29.9961 40.8869C26.4993 40.8869 23.2143 42.1878 21.2089 44.3676C20.971 44.6267 20.6448 44.758 20.3188 44.758Z" fill="#AA7346"/>
<path d="M34.3548 55.6452C17.7863 55.6452 4.3548 42.2138 4.3548 25.6452C4.3548 18.4702 6.8768 11.8861 11.0786 6.72375C4.31988 12.2245 0 20.6065 0 30C0 46.5686 13.4314 60 30 60C39.3936 60 47.7756 55.68 53.2765 48.9213C48.114 53.1231 41.53 55.6452 34.3548 55.6452Z" fill="#FFD164"/>
</svg>
