<svg width="60" height="60" viewBox="0 0 60 60" fill="none" xmlns="http://www.w3.org/2000/svg">
<circle cx="30" cy="30" r="30" fill="#FFE17D"/>
<path d="M19.4193 29.7741V29.7741C18.0832 29.7741 17 28.691 17 27.3548V25.4193C17 24.0832 18.0832 23 19.4193 23V23C20.7555 23 21.8387 24.0832 21.8387 25.4193V27.3548C21.8387 28.691 20.7555 29.7741 19.4193 29.7741Z" fill="#7D5046"/>
<path d="M19.4193 23C19.2536 23 19.0919 23.017 18.9354 23.0487V26.3871C18.9354 27.1888 19.5853 27.8387 20.387 27.8387C21.1887 27.8387 21.8386 27.1888 21.8386 26.3871V25.4193C21.8386 24.083 20.7556 23 19.4193 23Z" fill="#9C6846"/>
<path d="M39.742 29.7741V29.7741C38.4058 29.7741 37.3226 28.691 37.3226 27.3548V25.4193C37.3226 24.0832 38.4058 23 39.742 23V23C41.0781 23 42.1613 24.0832 42.1613 25.4193V27.3548C42.1613 28.691 41.0781 29.7741 39.742 29.7741Z" fill="#7D5046"/>
<path d="M39.742 23C39.5763 23 39.4146 23.017 39.2582 23.0487V26.3871C39.2582 27.1888 39.9081 27.8387 40.7098 27.8387C41.5115 27.8387 42.1614 27.1888 42.1614 26.3871V25.4193C42.1614 24.083 41.0782 23 39.742 23Z" fill="#9C6846"/>
<path d="M34.3548 55.6452C17.7863 55.6452 4.3548 42.2138 4.3548 25.6452C4.3548 18.4702 6.8768 11.8861 11.0786 6.72375C4.31988 12.2245 0 20.6065 0 30C0 46.5686 13.4314 60 30 60C39.3936 60 47.7756 55.68 53.2765 48.9213C48.114 53.1231 41.53 55.6452 34.3548 55.6452Z" fill="#FFD164"/>
<path d="M33.9195 43.4195H25.2097C24.5415 43.4195 24 42.8779 24 42.2097C24 41.5415 24.5415 41 25.2097 41H33.9195C34.5877 41 35.1292 41.5415 35.1292 42.2097C35.1292 42.8779 34.5877 43.4195 33.9195 43.4195Z" fill="#AA7346"/>
</svg>
