<svg width="20" height="20" viewBox="0 0 20 20" fill="none" xmlns="http://www.w3.org/2000/svg">
<path fill-rule="evenodd" clip-rule="evenodd" d="M9.99177 0.00012207C4.48225 0.00012207 0 4.48237 0 9.99178C0 15.5012 4.48225 19.9834 9.99177 19.9834C15.5013 19.9834 19.9835 15.5012 19.9835 9.99178C19.9835 4.48237 15.5013 0.00012207 9.99177 0.00012207ZM16.503 4.71242C17.6247 6.09317 18.3153 7.83595 18.3727 9.73574C16.2949 9.30558 14.4134 9.35606 12.7524 9.68173C12.4517 8.97841 12.1403 8.30836 11.8261 7.6751C13.635 6.89584 15.2097 5.90055 16.503 4.71242ZM11.0827 6.24836C12.606 5.60782 14.0937 4.74023 15.3774 3.56846C13.9193 2.34387 12.0406 1.6044 9.99177 1.6044C9.39219 1.6044 8.80749 1.66889 8.24321 1.78911C8.89487 2.66408 9.9646 4.20376 11.0827 6.24836ZM6.62289 2.31306C7.11497 2.95071 8.28706 4.54729 9.5461 6.81884C6.38182 7.84975 3.31144 8.02344 1.83604 8.03959C2.45102 5.4706 4.25005 3.3582 6.62289 2.31306ZM1.66032 9.64804L1.61305 9.64793C1.60834 9.76215 1.60428 9.87649 1.60428 9.99178C1.60428 12.0548 2.35433 13.9448 3.59433 15.4072C4.26406 14.5801 5.49059 13.2425 7.24139 12.0368C8.28545 11.3179 9.60353 10.5938 11.1665 10.0906C10.8864 9.45028 10.5975 8.83937 10.307 8.26023C9.19069 8.64183 8.00107 8.94975 6.74652 9.17852C4.54759 9.57948 2.67979 9.64804 1.66032 9.64804ZM4.75037 16.5329C5.32695 15.8069 6.50054 14.4855 8.19818 13.326C9.35187 12.538 10.5455 11.9525 11.7742 11.5683C12.4872 13.4162 13.0958 15.458 13.4587 17.626C12.4012 18.1081 11.2279 18.3792 9.99176 18.3792C8.00973 18.3792 6.18738 17.6866 4.75037 16.5329ZM13.3581 11.1878C14.0029 12.8988 14.5606 14.771 14.9347 16.7622C16.6726 15.4899 17.904 13.5664 18.2671 11.3536C16.5834 10.9754 14.9442 10.9202 13.3581 11.1878Z" fill="#10182F"/>
</svg>
