<svg width="21" height="20" viewBox="0 0 21 20" fill="none" xmlns="http://www.w3.org/2000/svg">
<path d="M10.112 0.0129395C4.52822 0.0129395 0 4.55885 0 10.1667C0 14.6519 2.89745 18.457 6.91748 19.8008C7.42314 19.8944 7.60771 19.5809 7.60771 19.3116C7.60771 19.0701 7.59886 18.4317 7.5938 17.5847C4.78105 18.1979 4.18689 16.2232 4.18689 16.2232C3.728 15.0501 3.06432 14.7379 3.06432 14.7379C2.14528 14.1083 3.13259 14.1209 3.13259 14.1209C4.1477 14.193 4.68118 15.1677 4.68118 15.1677C5.58379 16.7188 7.04895 16.2713 7.6254 16.0109C7.71642 15.3548 7.97811 14.9073 8.2676 14.6532C6.02245 14.3965 3.661 13.5255 3.661 9.63571C3.661 8.52705 4.05542 7.62065 4.70267 6.91019C4.59774 6.65356 4.25137 5.62075 4.80127 4.22385C4.80127 4.22385 5.65079 3.95079 7.58242 5.26425C8.38896 5.03923 9.25364 4.92672 10.1145 4.92293C10.9729 4.92799 11.8388 5.03923 12.6466 5.26552C14.577 3.95206 15.4253 4.22512 15.4253 4.22512C15.9764 5.62328 15.6301 6.65483 15.5264 6.91145C16.1749 7.62191 16.5655 8.52831 16.5655 9.63698C16.5655 13.5369 14.2016 14.3953 11.9488 14.6468C12.3116 14.9604 12.6353 15.5798 12.6353 16.5266C12.6353 17.8843 12.6226 18.9791 12.6226 19.3116C12.6226 19.5834 12.8047 19.8994 13.3179 19.7995C17.3316 18.4545 20.2265 14.6506 20.2265 10.1667C20.2265 4.55885 15.6983 0.0129395 10.112 0.0129395Z" fill="#10182F"/>
</svg>
