<svg width="20" height="16" viewBox="0 0 20 16" fill="none" xmlns="http://www.w3.org/2000/svg">
<path d="M19.4175 1.86772C18.6954 2.18447 17.926 2.39442 17.1238 2.49636C17.949 2.00364 18.5789 1.22937 18.875 0.296117C18.1056 0.754854 17.2561 1.07888 16.3507 1.25971C15.6201 0.481796 14.5789 0 13.443 0C11.2391 0 9.46481 1.78883 9.46481 3.9818C9.46481 4.29733 9.49151 4.60073 9.55704 4.88956C6.24757 4.72816 3.31917 3.14199 1.35194 0.725728C1.0085 1.3216 0.807039 2.00364 0.807039 2.73786C0.807039 4.1165 1.51699 5.33859 2.57524 6.04612C1.93568 6.03398 1.30825 5.8483 0.776699 5.55583C0.776699 5.56796 0.776699 5.58374 0.776699 5.59951C0.776699 7.53398 2.15655 9.14078 3.96602 9.51092C3.64199 9.59951 3.28884 9.64199 2.92233 9.64199C2.66748 9.64199 2.41019 9.62743 2.16869 9.57403C2.68447 11.1505 4.14806 12.3095 5.88835 12.3471C4.53398 13.4066 2.81432 14.0449 0.95267 14.0449C0.626214 14.0449 0.313107 14.0303 0 13.9903C1.76335 15.1274 3.85316 15.7767 6.1068 15.7767C13.432 15.7767 17.4369 9.70874 17.4369 4.44903C17.4369 4.27306 17.4308 4.10316 17.4223 3.93447C18.2124 3.37379 18.8762 2.67354 19.4175 1.86772Z" fill="#10182F"/>
</svg>
